<svg xmlns="http://www.w3.org/2000/svg" viewBox="0 0 512 512" >
  <style>
    .bg-favicon-svg{fill:#f8fafc}.text-favicon-svg{fill:#34d399}
    
    @media (prefers-color-scheme:dark){.bg-favicon-svg{fill:#1e293b}.text-favicon-svg{fill:#34d399}}
  </style>
  <rect class="bg-favicon-svg" width="512" height="512" rx="256" fill="#F8FAFC"/>
  <path class="text-favicon-svg" d="M382.6 191h-36.3c-4.9 0-9.5 2-12.9 5.2a17.3 17.3 0 0 0-5.3 12.5V314c0 4.6 2 9 5.3 12.4a18.5 18.5 0 0 0 25.7 0c3.4-3.3 5.3-7.8 5.3-12.4v-17.6h18.2c14.4 0 28.3-5.6 38.5-15.4a51.8 51.8 0 0 0 0-74.6 55.4 55.4 0 0 0-38.5-15.4Zm0 70.4h-18.2v-35.2h18.2c4.8 0 9.4 1.9 12.8 5.2a17.3 17.3 0 0 1 0 24.8c-3.4 3.3-8 5.2-12.8 5.2Zm-109-52.7V314c0 4.6-1.9 9-5.3 12.4a18.5 18.5 0 0 1-25.6 0 17.3 17.3 0 0 1-5.4-12.4V208.7c0-4.7 2-9.2 5.4-12.5a18.5 18.5 0 0 1 25.6 0c3.4 3.3 5.4 7.8 5.4 12.5ZM183 314c0 4.6-2 9-5.3 12.4-3.4 3.3-8 5.1-12.9 5.1H92.1a18.6 18.6 0 0 1-9.3-2.4 17.8 17.8 0 0 1-6.8-6.8 17.7 17.7 0 0 1-2-9.1 17.8 17.8 0 0 1 3-9l54-78H92c-4.8 0-9.4-2-12.8-5.2a17.3 17.3 0 0 1 0-24.9c3.4-3.3 8-5.1 12.8-5.1h72.6c3.3 0 6.6.8 9.4 2.4a17.8 17.8 0 0 1 6.7 6.8 17.7 17.7 0 0 1 2 9.1 17.8 17.8 0 0 1-2.9 9l-54 78h38.8c4.9 0 9.5 2 12.9 5.2 3.4 3.3 5.3 7.8 5.3 12.5Z" fill="#34D399"/>
</svg>
